<svg width="187" height="162" viewBox="0 0 187 162" fill="none" xmlns="http://www.w3.org/2000/svg">
<mask id="mask0_203_28841" style="mask-type:alpha" maskUnits="userSpaceOnUse" x="0" y="0" width="187" height="162">
<path fill-rule="evenodd" clip-rule="evenodd" d="M108.171 5.79509C133.909 -7.63881 165.758 2.27231 179.692 41.8642C189.038 68.4691 189.892 99.5038 175.078 123.624C167.848 135.402 156.912 145.523 141.427 152.687C135.498 155.412 129.293 157.492 122.92 158.892C122.328 159.036 121.645 159.181 121.014 159.286C97.6818 164.057 72.2205 160.6 50.7157 151.399L50.2556 151.189C31.2747 142.921 15.3827 130.131 6.87809 114.462C6.85686 114.425 6.83563 114.384 6.81353 114.341C6.78091 114.277 6.74639 114.21 6.70721 114.147C-7.29191 88.0153 5.43217 70.6248 15.0541 62.1333C18.5989 59.042 22.5865 56.4988 26.8843 54.5883C38.7147 49.2938 50.077 43.0103 60.8503 35.8045C76.7028 24.8944 93.5018 13.4585 108.171 5.79509ZM40.0685 23.3439C40.0685 23.3439 30.4466 33.8596 36.6378 39.3673C41.4224 43.6524 56.3548 35.9365 57.183 28.6806C57.8533 23.4753 49.6905 14.1688 40.108 23.3439H40.0685ZM27.0683 43.6785C27.0683 43.6785 22.6386 42.5612 22.7963 47.7139C22.954 52.8666 27.7781 50.5663 29.1978 49.541C30.6174 48.5157 32.8783 44.7826 27.0683 43.6785Z" fill="#FFD24B"/>
</mask>
<g mask="url(#mask0_203_28841)">
<rect x="0.5" y="-11.9502" width="186" height="186" fill="#EDEEF2"/>
</g>
<path d="M95.81 77.1676L90.9441 78.5622L87.2253 65.5863C86.2027 62.018 82.4464 59.9352 78.878 60.9578L65.9022 64.6765L64.5077 59.8106C63.2247 55.334 58.5503 52.742 54.0736 54.0249C49.597 55.3079 47.005 59.9824 48.2879 64.459L49.6825 69.325L36.7066 73.0437C33.1383 74.0663 31.0879 77.8133 32.1105 81.3817L35.6433 93.7087L40.4768 92.3235C45.3103 90.9382 50.3604 93.7385 51.7457 98.572C53.1309 103.405 50.3306 108.456 45.4971 109.841L40.6312 111.235L44.164 123.562C45.1866 127.131 48.9429 129.214 52.5113 128.191L64.8383 124.658L63.4438 119.792C62.0585 114.959 64.8588 109.909 69.6923 108.523C74.5258 107.138 79.5759 109.938 80.9611 114.772L82.3556 119.638L94.6827 116.105C98.251 115.082 100.334 111.326 99.3112 107.758L95.5925 94.7819L100.458 93.3874C104.935 92.1044 107.527 87.43 106.244 82.9533C104.961 78.4767 100.287 75.8847 95.81 77.1676Z" fill="white"/>
<path d="M161.827 87.4446L155.765 85.9825L159.664 69.8175C160.736 65.3721 157.976 60.8578 153.531 59.7856L137.365 55.8868L138.828 49.8249C140.173 44.248 136.738 38.6301 131.161 37.285C125.584 35.9399 119.966 39.3744 118.621 44.9514L117.159 51.0132L100.994 47.1144C96.5488 46.0422 92.0749 48.8119 91.0027 53.2573L87.2988 68.614L93.3203 70.0663C99.3418 71.5186 103.052 77.588 101.6 83.6094C100.148 89.6309 94.0783 93.3414 88.0569 91.8891L81.995 90.427L78.2911 105.784C77.2189 110.229 79.9788 114.744 84.4242 115.816L99.781 119.52L101.243 113.458C102.695 107.436 108.765 103.726 114.786 105.178C120.808 106.63 124.518 112.7 123.066 118.721L121.604 124.783L136.96 128.487C141.406 129.559 145.92 126.799 146.992 122.354L150.891 106.189L156.953 107.651C162.53 108.996 168.148 105.561 169.493 99.9845C170.838 94.4076 167.404 88.7897 161.827 87.4446Z" fill="#BBC1CB"/>
<circle cx="162" cy="21" r="21" fill="#ED4D61"/>
<path fill-rule="evenodd" clip-rule="evenodd" d="M165.746 23.9166H166.667L171.621 28.8799C172.1 29.3605 172.1 30.1389 171.62 30.6191C171.14 31.0993 170.361 31.0996 169.881 30.62L164.917 25.6666V24.7449L164.602 24.4183C163.272 25.5616 161.546 26.2499 159.667 26.2499C155.479 26.2499 152.084 22.8549 152.084 18.6666C152.084 14.4783 155.479 11.0833 159.667 11.0833C163.856 11.0833 167.251 14.4783 167.251 18.6666C167.251 20.5449 166.562 22.2716 165.419 23.6016L165.746 23.9166ZM154.417 18.6666C154.417 21.5716 156.762 23.9166 159.667 23.9166C162.572 23.9166 164.917 21.5716 164.917 18.6666C164.917 15.7616 162.572 13.4166 159.667 13.4166C156.762 13.4166 154.417 15.7616 154.417 18.6666Z" fill="white"/>
<path d="M166.667 23.9166L167.021 23.5634L166.875 23.4166H166.667V23.9166ZM165.746 23.9166L165.399 24.2765L165.544 24.4166H165.746V23.9166ZM171.621 28.8799L171.975 28.5267L171.621 28.8799ZM171.62 30.6191L171.266 30.2655L171.266 30.2655L171.62 30.6191ZM169.881 30.62L169.527 30.9739L169.881 30.62ZM164.917 25.6666H164.417V25.874L164.564 26.0205L164.917 25.6666ZM164.917 24.7449H165.417V24.5431L165.277 24.3978L164.917 24.7449ZM164.602 24.4183L164.962 24.0712L164.634 23.7313L164.276 24.0391L164.602 24.4183ZM165.419 23.6016L165.04 23.2756L164.732 23.6337L165.072 23.9615L165.419 23.6016ZM166.667 23.4166H165.746V24.4166H166.667V23.4166ZM171.975 28.5267L167.021 23.5634L166.313 24.2698L171.267 29.2331L171.975 28.5267ZM171.973 30.9726C172.649 30.2973 172.649 29.2027 171.975 28.5267L171.267 29.2331C171.552 29.5184 171.551 29.9805 171.266 30.2655L171.973 30.9726ZM169.527 30.9739C170.203 31.6485 171.298 31.6479 171.973 30.9726L171.266 30.2655C170.981 30.5506 170.519 30.5508 170.234 30.266L169.527 30.9739ZM164.564 26.0205L169.527 30.9739L170.234 30.266L165.271 25.3127L164.564 26.0205ZM164.417 24.7449V25.6666H165.417V24.7449H164.417ZM164.242 24.7653L164.557 25.092L165.277 24.3978L164.962 24.0712L164.242 24.7653ZM159.667 26.7499C161.67 26.7499 163.511 26.0156 164.928 24.7974L164.276 24.0391C163.033 25.1076 161.421 25.7499 159.667 25.7499V26.7499ZM151.584 18.6666C151.584 23.1311 155.203 26.7499 159.667 26.7499V25.7499C155.755 25.7499 152.584 22.5788 152.584 18.6666H151.584ZM159.667 10.5833C155.203 10.5833 151.584 14.2021 151.584 18.6666H152.584C152.584 14.7544 155.755 11.5833 159.667 11.5833V10.5833ZM167.751 18.6666C167.751 14.2021 164.132 10.5833 159.667 10.5833V11.5833C163.58 11.5833 166.751 14.7544 166.751 18.6666H167.751ZM165.798 23.9275C167.016 22.5104 167.751 20.6692 167.751 18.6666H166.751C166.751 20.4207 166.108 22.0327 165.04 23.2756L165.798 23.9275ZM166.093 23.5567L165.766 23.2417L165.072 23.9615L165.399 24.2765L166.093 23.5567ZM159.667 23.4166C157.038 23.4166 154.917 21.2954 154.917 18.6666H153.917C153.917 21.8477 156.486 24.4166 159.667 24.4166V23.4166ZM164.417 18.6666C164.417 21.2954 162.296 23.4166 159.667 23.4166V24.4166C162.848 24.4166 165.417 21.8477 165.417 18.6666H164.417ZM159.667 13.9166C162.296 13.9166 164.417 16.0377 164.417 18.6666H165.417C165.417 15.4854 162.848 12.9166 159.667 12.9166V13.9166ZM154.917 18.6666C154.917 16.0377 157.038 13.9166 159.667 13.9166V12.9166C156.486 12.9166 153.917 15.4854 153.917 18.6666H154.917Z" fill="white"/>
<mask id="mask1_203_28841" style="mask-type:alpha" maskUnits="userSpaceOnUse" x="152" y="11" width="20" height="20">
<path fill-rule="evenodd" clip-rule="evenodd" d="M165.746 23.9166H166.667L171.621 28.8799C172.1 29.3605 172.1 30.1389 171.62 30.6191C171.14 31.0993 170.361 31.0996 169.881 30.62L164.917 25.6666V24.7449L164.602 24.4183C163.272 25.5616 161.546 26.2499 159.667 26.2499C155.479 26.2499 152.084 22.8549 152.084 18.6666C152.084 14.4783 155.479 11.0833 159.667 11.0833C163.856 11.0833 167.251 14.4783 167.251 18.6666C167.251 20.5449 166.562 22.2716 165.419 23.6016L165.746 23.9166ZM154.417 18.6666C154.417 21.5716 156.762 23.9166 159.667 23.9166C162.572 23.9166 164.917 21.5716 164.917 18.6666C164.917 15.7616 162.572 13.4166 159.667 13.4166C156.762 13.4166 154.417 15.7616 154.417 18.6666Z" fill="white"/>
</mask>
<g mask="url(#mask1_203_28841)">
<rect x="148" y="7" width="28" height="28" fill="white"/>
</g>
</svg>
